<mxfile host="app.diagrams.net" agent="Mozilla/5.0 (Windows NT 10.0; Win64; x64) AppleWebKit/537.36 (KHTML, like Gecko) Chrome/135.0.0.0 Safari/537.36 Edg/135.0.0.0" version="26.2.12">
  <diagram name="Page-1" id="N5tbG0MDtSxEJls4hTmb">
    <mxGraphModel dx="2210" dy="576" grid="1" gridSize="10" guides="1" tooltips="1" connect="1" arrows="1" fold="1" page="1" pageScale="1" pageWidth="583" pageHeight="827" math="0" shadow="0">
      <root>
        <mxCell id="0" />
        <mxCell id="1" parent="0" />
        <mxCell id="oi_Wegr7ccNVkyWtqh0D-1" value="" style="swimlane;fontStyle=0;childLayout=stackLayout;horizontal=1;startSize=0;horizontalStack=0;resizeParent=1;resizeParentMax=0;resizeLast=0;collapsible=0;marginBottom=0;whiteSpace=wrap;html=1;strokeColor=none;fillColor=none;" parent="1" vertex="1">
          <mxGeometry x="-760" y="200" width="200" height="30" as="geometry" />
        </mxCell>
        <mxCell id="oi_Wegr7ccNVkyWtqh0D-2" value="crm_cust_info" style="text;strokeColor=#6c8ebf;fillColor=#dae8fc;align=center;verticalAlign=middle;spacingLeft=10;spacingRight=10;overflow=hidden;points=[[0,0.5],[1,0.5]];portConstraint=eastwest;rotatable=0;whiteSpace=wrap;html=1;shape=mxgraph.bootstrap.topButton;rSize=5;fontSize=15;fontStyle=1" parent="oi_Wegr7ccNVkyWtqh0D-1" vertex="1">
          <mxGeometry width="200" height="30" as="geometry" />
        </mxCell>
        <mxCell id="oi_Wegr7ccNVkyWtqh0D-6" value="" style="swimlane;fontStyle=0;childLayout=stackLayout;horizontal=1;startSize=0;horizontalStack=0;resizeParent=1;resizeParentMax=0;resizeLast=0;collapsible=0;marginBottom=0;whiteSpace=wrap;html=1;strokeColor=none;fillColor=none;" parent="1" vertex="1">
          <mxGeometry x="-760" y="470" width="200" height="60" as="geometry" />
        </mxCell>
        <mxCell id="oi_Wegr7ccNVkyWtqh0D-7" value="crm_prd_info" style="text;strokeColor=#6c8ebf;fillColor=#dae8fc;align=center;verticalAlign=middle;spacingLeft=10;spacingRight=10;overflow=hidden;points=[[0,0.5],[1,0.5]];portConstraint=eastwest;rotatable=0;whiteSpace=wrap;html=1;shape=mxgraph.bootstrap.topButton;rSize=5;fontSize=15;fontStyle=1" parent="oi_Wegr7ccNVkyWtqh0D-6" vertex="1">
          <mxGeometry width="200" height="30" as="geometry" />
        </mxCell>
        <mxCell id="oi_Wegr7ccNVkyWtqh0D-8" value="prd_key" style="text;strokeColor=#DFDFDF;fillColor=#FFFFFF;align=left;verticalAlign=middle;spacingLeft=10;spacingRight=10;overflow=hidden;points=[[0,0.5],[1,0.5]];portConstraint=eastwest;rotatable=0;whiteSpace=wrap;html=1;rSize=5;fontColor=#333333;fontSize=14;" parent="oi_Wegr7ccNVkyWtqh0D-6" vertex="1">
          <mxGeometry y="30" width="200" height="30" as="geometry" />
        </mxCell>
        <mxCell id="oi_Wegr7ccNVkyWtqh0D-9" value="" style="swimlane;fontStyle=0;childLayout=stackLayout;horizontal=1;startSize=0;horizontalStack=0;resizeParent=1;resizeParentMax=0;resizeLast=0;collapsible=0;marginBottom=0;whiteSpace=wrap;html=1;strokeColor=none;fillColor=none;" parent="1" vertex="1">
          <mxGeometry x="-1074" y="270" width="200" height="60" as="geometry" />
        </mxCell>
        <mxCell id="oi_Wegr7ccNVkyWtqh0D-10" value="crm_sales_details" style="text;strokeColor=#6c8ebf;fillColor=#dae8fc;align=center;verticalAlign=middle;spacingLeft=10;spacingRight=10;overflow=hidden;points=[[0,0.5],[1,0.5]];portConstraint=eastwest;rotatable=0;whiteSpace=wrap;html=1;shape=mxgraph.bootstrap.topButton;rSize=5;fontSize=15;fontStyle=1" parent="oi_Wegr7ccNVkyWtqh0D-9" vertex="1">
          <mxGeometry width="200" height="30" as="geometry" />
        </mxCell>
        <mxCell id="oi_Wegr7ccNVkyWtqh0D-11" value="sls_cst_id" style="text;strokeColor=#DFDFDF;fillColor=#FFFFFF;align=left;verticalAlign=middle;spacingLeft=10;spacingRight=10;overflow=hidden;points=[[0,0.5],[1,0.5]];portConstraint=eastwest;rotatable=0;whiteSpace=wrap;html=1;rSize=5;fontColor=#333333;fontSize=14;" parent="oi_Wegr7ccNVkyWtqh0D-9" vertex="1">
          <mxGeometry y="30" width="200" height="30" as="geometry" />
        </mxCell>
        <mxCell id="oi_Wegr7ccNVkyWtqh0D-32" style="edgeStyle=orthogonalEdgeStyle;rounded=0;orthogonalLoop=1;jettySize=auto;html=1;entryX=0;entryY=0.5;entryDx=0;entryDy=0;" parent="1" source="oi_Wegr7ccNVkyWtqh0D-12" target="oi_Wegr7ccNVkyWtqh0D-8" edge="1">
          <mxGeometry relative="1" as="geometry" />
        </mxCell>
        <mxCell id="oi_Wegr7ccNVkyWtqh0D-12" value="sls_prd_key" style="text;strokeColor=#DFDFDF;fillColor=#FFFFFF;align=left;verticalAlign=middle;spacingLeft=10;spacingRight=10;overflow=hidden;points=[[0,0.5],[1,0.5]];portConstraint=eastwest;rotatable=0;whiteSpace=wrap;html=1;rSize=5;fontColor=#333333;fontSize=14;" parent="1" vertex="1">
          <mxGeometry x="-1076" y="330" width="204" height="30" as="geometry" />
        </mxCell>
        <mxCell id="oi_Wegr7ccNVkyWtqh0D-3" value="cst_key" style="text;strokeColor=#DFDFDF;fillColor=#FFFFFF;align=left;verticalAlign=middle;spacingLeft=10;spacingRight=10;overflow=hidden;points=[[0,0.5],[1,0.5]];portConstraint=eastwest;rotatable=0;whiteSpace=wrap;html=1;rSize=5;fontColor=#333333;fontSize=14;" parent="1" vertex="1">
          <mxGeometry x="-760" y="260" width="200" height="30" as="geometry" />
        </mxCell>
        <mxCell id="oi_Wegr7ccNVkyWtqh0D-13" value="cst_id" style="text;strokeColor=#DFDFDF;fillColor=#FFFFFF;align=left;verticalAlign=middle;spacingLeft=10;spacingRight=10;overflow=hidden;points=[[0,0.5],[1,0.5]];portConstraint=eastwest;rotatable=0;whiteSpace=wrap;html=1;rSize=5;fontColor=#333333;fontSize=14;" parent="1" vertex="1">
          <mxGeometry x="-760" y="230" width="200" height="30" as="geometry" />
        </mxCell>
        <mxCell id="oi_Wegr7ccNVkyWtqh0D-16" value="" style="swimlane;fontStyle=0;childLayout=stackLayout;horizontal=1;startSize=0;horizontalStack=0;resizeParent=1;resizeParentMax=0;resizeLast=0;collapsible=0;marginBottom=0;whiteSpace=wrap;html=1;strokeColor=none;fillColor=none;" parent="1" vertex="1">
          <mxGeometry x="-330" y="190" width="200" height="60" as="geometry" />
        </mxCell>
        <mxCell id="oi_Wegr7ccNVkyWtqh0D-17" value="erp_cust_az12" style="text;strokeColor=#d6b656;fillColor=#fff2cc;align=center;verticalAlign=middle;spacingLeft=10;spacingRight=10;overflow=hidden;points=[[0,0.5],[1,0.5]];portConstraint=eastwest;rotatable=0;whiteSpace=wrap;html=1;shape=mxgraph.bootstrap.topButton;rSize=5;fontSize=15;fontStyle=1" parent="oi_Wegr7ccNVkyWtqh0D-16" vertex="1">
          <mxGeometry width="200" height="30" as="geometry" />
        </mxCell>
        <mxCell id="oi_Wegr7ccNVkyWtqh0D-18" value="CID" style="text;strokeColor=#DFDFDF;fillColor=#FFFFFF;align=left;verticalAlign=middle;spacingLeft=10;spacingRight=10;overflow=hidden;points=[[0,0.5],[1,0.5]];portConstraint=eastwest;rotatable=0;whiteSpace=wrap;html=1;rSize=5;fontColor=#333333;fontSize=14;" parent="oi_Wegr7ccNVkyWtqh0D-16" vertex="1">
          <mxGeometry y="30" width="200" height="30" as="geometry" />
        </mxCell>
        <mxCell id="oi_Wegr7ccNVkyWtqh0D-20" value="" style="swimlane;fontStyle=0;childLayout=stackLayout;horizontal=1;startSize=0;horizontalStack=0;resizeParent=1;resizeParentMax=0;resizeLast=0;collapsible=0;marginBottom=0;whiteSpace=wrap;html=1;strokeColor=none;fillColor=none;" parent="1" vertex="1">
          <mxGeometry x="-330" y="300" width="200" height="60" as="geometry" />
        </mxCell>
        <mxCell id="oi_Wegr7ccNVkyWtqh0D-21" value="erp_loc_a101" style="text;strokeColor=#d6b656;fillColor=#fff2cc;align=center;verticalAlign=middle;spacingLeft=10;spacingRight=10;overflow=hidden;points=[[0,0.5],[1,0.5]];portConstraint=eastwest;rotatable=0;whiteSpace=wrap;html=1;shape=mxgraph.bootstrap.topButton;rSize=5;fontSize=15;fontStyle=1" parent="oi_Wegr7ccNVkyWtqh0D-20" vertex="1">
          <mxGeometry width="200" height="30" as="geometry" />
        </mxCell>
        <mxCell id="oi_Wegr7ccNVkyWtqh0D-22" value="CID" style="text;strokeColor=#DFDFDF;fillColor=#FFFFFF;align=left;verticalAlign=middle;spacingLeft=10;spacingRight=10;overflow=hidden;points=[[0,0.5],[1,0.5]];portConstraint=eastwest;rotatable=0;whiteSpace=wrap;html=1;rSize=5;fontColor=#333333;fontSize=14;" parent="oi_Wegr7ccNVkyWtqh0D-20" vertex="1">
          <mxGeometry y="30" width="200" height="30" as="geometry" />
        </mxCell>
        <mxCell id="oi_Wegr7ccNVkyWtqh0D-24" value="" style="swimlane;fontStyle=0;childLayout=stackLayout;horizontal=1;startSize=0;horizontalStack=0;resizeParent=1;resizeParentMax=0;resizeLast=0;collapsible=0;marginBottom=0;whiteSpace=wrap;html=1;strokeColor=none;fillColor=none;" parent="1" vertex="1">
          <mxGeometry x="-340" y="470" width="200" height="60" as="geometry" />
        </mxCell>
        <mxCell id="oi_Wegr7ccNVkyWtqh0D-25" value="erp_px_cat_g1v2" style="text;strokeColor=#d6b656;fillColor=#fff2cc;align=center;verticalAlign=middle;spacingLeft=10;spacingRight=10;overflow=hidden;points=[[0,0.5],[1,0.5]];portConstraint=eastwest;rotatable=0;whiteSpace=wrap;html=1;shape=mxgraph.bootstrap.topButton;rSize=5;fontSize=15;fontStyle=1" parent="oi_Wegr7ccNVkyWtqh0D-24" vertex="1">
          <mxGeometry width="200" height="30" as="geometry" />
        </mxCell>
        <mxCell id="oi_Wegr7ccNVkyWtqh0D-26" value="ID" style="text;strokeColor=#DFDFDF;fillColor=#FFFFFF;align=left;verticalAlign=middle;spacingLeft=10;spacingRight=10;overflow=hidden;points=[[0,0.5],[1,0.5]];portConstraint=eastwest;rotatable=0;whiteSpace=wrap;html=1;rSize=5;fontColor=#333333;fontSize=14;" parent="oi_Wegr7ccNVkyWtqh0D-24" vertex="1">
          <mxGeometry y="30" width="200" height="30" as="geometry" />
        </mxCell>
        <mxCell id="oi_Wegr7ccNVkyWtqh0D-31" style="edgeStyle=orthogonalEdgeStyle;rounded=0;orthogonalLoop=1;jettySize=auto;html=1;exitX=1;exitY=0.5;exitDx=0;exitDy=0;entryX=0;entryY=0.5;entryDx=0;entryDy=0;" parent="1" source="oi_Wegr7ccNVkyWtqh0D-11" target="oi_Wegr7ccNVkyWtqh0D-13" edge="1">
          <mxGeometry relative="1" as="geometry" />
        </mxCell>
        <mxCell id="oi_Wegr7ccNVkyWtqh0D-34" style="edgeStyle=orthogonalEdgeStyle;rounded=0;orthogonalLoop=1;jettySize=auto;html=1;exitX=0;exitY=0.5;exitDx=0;exitDy=0;entryX=1;entryY=0.75;entryDx=0;entryDy=0;" parent="1" source="oi_Wegr7ccNVkyWtqh0D-26" target="oi_Wegr7ccNVkyWtqh0D-6" edge="1">
          <mxGeometry relative="1" as="geometry" />
        </mxCell>
        <mxCell id="oi_Wegr7ccNVkyWtqh0D-37" style="edgeStyle=orthogonalEdgeStyle;rounded=0;orthogonalLoop=1;jettySize=auto;html=1;exitX=0;exitY=0.5;exitDx=0;exitDy=0;entryX=1;entryY=0.5;entryDx=0;entryDy=0;" parent="1" source="oi_Wegr7ccNVkyWtqh0D-22" target="oi_Wegr7ccNVkyWtqh0D-3" edge="1">
          <mxGeometry relative="1" as="geometry" />
        </mxCell>
        <mxCell id="oi_Wegr7ccNVkyWtqh0D-38" style="edgeStyle=orthogonalEdgeStyle;rounded=0;orthogonalLoop=1;jettySize=auto;html=1;entryX=1;entryY=0.5;entryDx=0;entryDy=0;" parent="1" source="oi_Wegr7ccNVkyWtqh0D-18" target="oi_Wegr7ccNVkyWtqh0D-3" edge="1">
          <mxGeometry relative="1" as="geometry" />
        </mxCell>
        <mxCell id="oi_Wegr7ccNVkyWtqh0D-39" value="" style="rounded=1;whiteSpace=wrap;html=1;fillColor=none;" parent="1" vertex="1">
          <mxGeometry x="-1100" y="110" width="610" height="460" as="geometry" />
        </mxCell>
        <mxCell id="oi_Wegr7ccNVkyWtqh0D-40" value="&lt;b&gt;&lt;font style=&quot;font-size: 23px;&quot;&gt;CRM&lt;/font&gt;&lt;/b&gt;" style="rounded=1;whiteSpace=wrap;html=1;fillColor=#dae8fc;strokeColor=#6c8ebf;" parent="1" vertex="1">
          <mxGeometry x="-900" y="80" width="210" height="60" as="geometry" />
        </mxCell>
        <mxCell id="oi_Wegr7ccNVkyWtqh0D-41" value="Transaction record about sales and orders" style="rounded=0;whiteSpace=wrap;html=1;fillColor=none;strokeColor=none;" parent="1" vertex="1">
          <mxGeometry x="-1060" y="240" width="170" height="30" as="geometry" />
        </mxCell>
        <mxCell id="oi_Wegr7ccNVkyWtqh0D-42" value="Customer Information" style="rounded=0;whiteSpace=wrap;html=1;strokeColor=none;fillColor=none;" parent="1" vertex="1">
          <mxGeometry x="-720" y="180" width="120" height="20" as="geometry" />
        </mxCell>
        <mxCell id="oi_Wegr7ccNVkyWtqh0D-43" value="Product Information" style="rounded=0;whiteSpace=wrap;html=1;fillColor=none;strokeColor=none;" parent="1" vertex="1">
          <mxGeometry x="-720" y="440" width="120" height="30" as="geometry" />
        </mxCell>
        <mxCell id="oi_Wegr7ccNVkyWtqh0D-44" value="Customer Location" style="rounded=0;whiteSpace=wrap;html=1;fillColor=none;strokeColor=none;" parent="1" vertex="1">
          <mxGeometry x="-290" y="280" width="120" height="20" as="geometry" />
        </mxCell>
        <mxCell id="oi_Wegr7ccNVkyWtqh0D-45" value="Extra Customer Information(Birthdate)" style="rounded=0;whiteSpace=wrap;html=1;fillColor=none;strokeColor=none;" parent="1" vertex="1">
          <mxGeometry x="-330" y="150" width="180" height="40" as="geometry" />
        </mxCell>
        <mxCell id="oi_Wegr7ccNVkyWtqh0D-46" value="Product Categories" style="rounded=0;whiteSpace=wrap;html=1;fillColor=none;strokeColor=none;" parent="1" vertex="1">
          <mxGeometry x="-300" y="450" width="120" height="20" as="geometry" />
        </mxCell>
        <mxCell id="oi_Wegr7ccNVkyWtqh0D-47" value="" style="rounded=1;whiteSpace=wrap;html=1;fillColor=none;" parent="1" vertex="1">
          <mxGeometry x="-460" y="110" width="440" height="470" as="geometry" />
        </mxCell>
        <mxCell id="oi_Wegr7ccNVkyWtqh0D-48" value="&lt;b&gt;&lt;font style=&quot;font-size: 23px;&quot;&gt;ERP&lt;/font&gt;&lt;/b&gt;" style="rounded=1;whiteSpace=wrap;html=1;fillColor=#fff2cc;strokeColor=#d6b656;" parent="1" vertex="1">
          <mxGeometry x="-340" y="70" width="180" height="60" as="geometry" />
        </mxCell>
        <mxCell id="mjIa3pvzCwXjLUlyKsyu-1" value="Customer" style="text;html=1;strokeColor=#82b366;fillColor=#d5e8d4;align=center;verticalAlign=middle;whiteSpace=wrap;overflow=hidden;" vertex="1" parent="1">
          <mxGeometry x="-330" y="250" width="200" height="20" as="geometry" />
        </mxCell>
        <mxCell id="mjIa3pvzCwXjLUlyKsyu-2" value="Customer" style="text;html=1;strokeColor=#82b366;fillColor=#d5e8d4;align=center;verticalAlign=middle;whiteSpace=wrap;overflow=hidden;" vertex="1" parent="1">
          <mxGeometry x="-330" y="360" width="200" height="20" as="geometry" />
        </mxCell>
        <mxCell id="mjIa3pvzCwXjLUlyKsyu-3" value="Product" style="text;html=1;strokeColor=#b85450;fillColor=#f8cecc;align=center;verticalAlign=middle;whiteSpace=wrap;overflow=hidden;" vertex="1" parent="1">
          <mxGeometry x="-340" y="530" width="200" height="20" as="geometry" />
        </mxCell>
        <mxCell id="mjIa3pvzCwXjLUlyKsyu-4" value="Product" style="text;html=1;strokeColor=#b85450;fillColor=#f8cecc;align=center;verticalAlign=middle;whiteSpace=wrap;overflow=hidden;" vertex="1" parent="1">
          <mxGeometry x="-760" y="530" width="200" height="20" as="geometry" />
        </mxCell>
        <mxCell id="mjIa3pvzCwXjLUlyKsyu-5" value="Customer" style="text;html=1;strokeColor=#82b366;fillColor=#d5e8d4;align=center;verticalAlign=middle;whiteSpace=wrap;overflow=hidden;" vertex="1" parent="1">
          <mxGeometry x="-760" y="290" width="200" height="20" as="geometry" />
        </mxCell>
        <mxCell id="mjIa3pvzCwXjLUlyKsyu-6" value="Sales" style="text;html=1;strokeColor=#9673a6;fillColor=#e1d5e7;align=center;verticalAlign=middle;whiteSpace=wrap;overflow=hidden;" vertex="1" parent="1">
          <mxGeometry x="-1076" y="360" width="200" height="20" as="geometry" />
        </mxCell>
      </root>
    </mxGraphModel>
  </diagram>
</mxfile>
